<?xml version="1.0" encoding="utf-8"?>
<!-- Generator: Adobe Illustrator 24.0.2, SVG Export Plug-In . SVG Version: 6.00 Build 0)  -->
<svg version="1.1" id="katman_1" xmlns="http://www.w3.org/2000/svg" xmlns:xlink="http://www.w3.org/1999/xlink" x="0px" y="0px"
	 viewBox="0 0 560 400" style="enable-background:new 0 0 560 400;" xml:space="preserve">
<style type="text/css">
	.st0{fill:#FFFFFF;}
</style>
<g transform="matrix(1.30304 0 0 1.30304 16.1328 4.08896)">
	<path class="st0" d="M282.3,213.3c-32.2,2.3-45.7-4.7-45.7-4.7C283.7,151.3,237,92,237,92c8.9-7.5,45.2-7,45.2-7v22h46.2V42.6
		c-100.7-4.2-129.7,21-129.7,21c-31.2-25.2-127.3-21-127.3-21l-0.9,118h48V85.5c17.3-1.9,43.8,6.5,43.8,6.5
		c-44.3,64.8,0.5,116.1,0.5,116.1c-15.9,9.3-45.7,5.6-45.7,5.6v-27.5H71.4v70c102.1,7,127.8-18.2,127.8-18.2
		c39.6,21.9,72.8,19.6,72.8,19.6l56.9,0.9v-71.8h-46.6V213.3z M200.6,181.1c-22.4-32.6-1.4-60.6-1.4-60.6
		C222.6,149.4,200.6,181.1,200.6,181.1z"/>
	<path class="st0" d="M311.5,135.4l-4.8-17.9l-6.4,17.7l-17.1-7.2l10.1,15.7l-15.4,9.8l17.9,1.6l-2.6,18.3l12.6-12.9l12.4,12.9
		l-2-18.2l18.3-1.7L319,144l9.8-15.2L311.5,135.4z"/>
</g>
</svg>
