<?xml version="1.0" encoding="utf-8"?>
<!-- Generator: Adobe Illustrator 24.0.2, SVG Export Plug-In . SVG Version: 6.00 Build 0)  -->
<svg version="1.1" id="katman_1" xmlns="http://www.w3.org/2000/svg" xmlns:xlink="http://www.w3.org/1999/xlink" x="0px" y="0px"
	 viewBox="0 0 560 441.3" style="enable-background:new 0 0 560 441.3;" xml:space="preserve">
<style type="text/css">
	.st0{fill:#FFFFFF;}
</style>
<g>
	<path class="st0" d="M516.3,350.3H52.2c-15.9,0-27.2-13.4-27.3-26.2v-104c20,0,37.9-9.6,44.4-14.3c41.4-29.6,75.8-87.2,119.9-106
		c12.9-5.5,38-14.4,69.6-6.2l37.8,37.7c0,0-19.8-9.3-49.1-9.3c-32.9,0-96.3,27.1-96.3,98c0,57.1,39.3,97.2,103.8,97.2h228.2
		L516.3,350.3z"/>
	<path class="st0" d="M462.8,297H250c-24.1,0-56.4-11.5-66.1-34c0,0,95.7-97.6,100.3-102.3c11.5-11.4,31.9-11.4,41.8,0L462.8,297z
		 M251.4,221.8c-2.4,2.4-1.1,5.1,2,5h26.2l18.4-15.6c3.9-3.8,7.6-3.1,7.6,1v31.1c-0.1,4.9,4.3,4.9,6.9,1.6l19.1-18.1h25.1
		c2,0,3.4-2.6,0.7-5.2l-45.3-44.6c-3.2-3.2-10.2-3.2-13.3,0C297.7,178,251.4,221.8,251.4,221.8"/>
</g>
</svg>
