<?xml version="1.0" encoding="utf-8"?>
<!-- Generator: Adobe Illustrator 24.0.2, SVG Export Plug-In . SVG Version: 6.00 Build 0)  -->
<svg version="1.1" id="katman_1" xmlns="http://www.w3.org/2000/svg" xmlns:xlink="http://www.w3.org/1999/xlink" x="0px" y="0px"
	 viewBox="0 0 560 400" style="enable-background:new 0 0 560 400;" xml:space="preserve">
<style type="text/css">
	.st0{fill:#FFFFFF;}
</style>
<path class="st0" d="M333.1,181.7c-28.7,0.4-52.3-21-52.7-47.8c0-0.5,0-1,0-1.5c0-27.2,23.6-49.3,52.7-49.3
	c29.1,0,52.7,22,52.7,49.3c0.4,26.8-22.5,48.9-51.2,49.3C334.2,181.7,333.7,181.7,333.1,181.7 M333.1,67.6
	c-18.3-0.2-36,6.4-49.2,18.4c-13.4,12.2-20.8,28.9-20.4,46.3c-0.3,17.3,7.2,33.9,20.4,46c13.2,11.8,30.9,18.3,49.2,18.1
	c18.4,0.3,36.2-6.2,49.5-18.1c27.2-25.4,27.4-66.6,0.3-92.1c-0.1-0.1-0.2-0.2-0.3-0.2C369.4,74.1,351.6,67.5,333.1,67.6"/>
<path class="st0" d="M202.1,131.6h-33.5v-46h34.2c13-0.2,23.8,9.5,24,21.7c0,0.2,0,0.5,0,0.7c0.4,12.6-10.1,23.2-23.6,23.6
	C202.8,131.6,202.5,131.6,202.1,131.6 M244.2,108.1c0-10-4.2-19.7-11.8-26.8c-8-6.7-18.4-10.3-29.1-10.3h-51.2v124h16.5v-48.3h33.9
	L232,195h19.7l-31.8-51.5C234.9,137.4,244.6,123.4,244.2,108.1"/>
<polygon class="st0" points="253.8,209.3 235.4,209.3 203.4,257.6 171.6,209.3 152.8,209.3 192.3,268.9 150.4,332.6 168.4,332.6 
	202.8,280.6 237.8,332.6 256.8,332.6 214.2,268.9 "/>
<polyline class="st0" points="392.9,209.3 372.3,209.3 332.9,266.3 292.7,209.3 271.9,209.3 323.3,282.1 323.3,332.6 342.2,332.6 
	342.2,282.1 392.9,209.3 "/>
</svg>
